<!-- Generator: Adobe Illustrator 17.1.0, SVG Export Plug-In  --><svg version="1.1"	 xmlns="http://www.w3.org/2000/svg" xmlns:xlink="http://www.w3.org/1999/xlink" xmlns:a="http://ns.adobe.com/AdobeSVGViewerExtensions/3.0/"	 x="0px" y="0px" width="290.1px" height="233.7px" viewBox="0 0 290.1 233.7" enable-background="new 0 0 290.1 233.7"	 xml:space="preserve"><defs></defs><g>	<rect x="115.2" y="191.9" fill="#DDDDDD" width="58.7" height="40.6"/>	<rect x="86.9" y="224.7" fill="#FFFFFF" width="115.2" height="9"/>	<rect x="115.2" y="221.3" fill="#868686" width="58.7" height="3.4"/>	<g>		<g>			<path fill="#000100" d="M290.1,186.5c0,6.4-5.5,12.2-11.9,12.2H11.5c-6.4,0-11.5-5.8-11.5-12.2V26.7V11.9C0,5.5,5.1,0,11.5,0				h266.7c6.4,0,11.9,5.5,11.9,11.9v11.8V186.5z"/>			<path fill="#FDFDFD" d="M0,156.9v29.6c0,6.4,5.1,12.2,11.5,12.2h266.7c6.4,0,11.9-5.8,11.9-12.2v-29.6H0z"/>		</g>		<g>			<rect x="11.3" y="12.4" fill="#4D4D4D" width="267.6" height="133.2"/>			<rect x="11.3" y="12.4" fill="#D9D9D9" width="266.4" height="2.3"/>		</g>	</g>	<g>		<circle fill="#C6C6C5" cx="144.9" cy="7.4" r="1.4"/>		<circle fill="#9C9B9B" cx="144.9" cy="7.4" r="1.2"/>		<circle fill="#575756" cx="144.9" cy="7.4" r="1.1"/>		<circle fill="#3C3C3B" cx="144.9" cy="7.4" r="0.5"/>		<circle fill="#ECECEC" cx="145.3" cy="7" r="0.3"/>	</g>	<circle fill="#000100" cx="144.9" cy="180.1" r="7.1"/>	<g>		<linearGradient id="SVGID_1_" gradientUnits="userSpaceOnUse" x1="148.5246" y1="38.9828" x2="267.4973" y2="208.8934">			<stop  offset="0" style="stop-color:#FFFFFF;stop-opacity:0.2"/>			<stop  offset="1" style="stop-color:#000000;stop-opacity:0"/>		</linearGradient>		<path fill="url(#SVGID_1_)" d="M278.3,0h-74.1l-107,198.7h181.2c6.5,0,11.7-5.2,11.7-11.7V11.7C290,5.2,284.8,0,278.3,0z"/>	</g></g></svg>