<?xml version="1.0" encoding="utf-8"?>
<!-- Generator: Adobe Illustrator 15.0.2, SVG Export Plug-In . SVG Version: 6.00 Build 0)  -->
<!DOCTYPE svg PUBLIC "-//W3C//DTD SVG 1.1//EN" "http://www.w3.org/Graphics/SVG/1.1/DTD/svg11.dtd">
<svg version="1.1" id="Layer_1" xmlns="http://www.w3.org/2000/svg" xmlns:xlink="http://www.w3.org/1999/xlink" x="0px" y="0px"
	 width="105.805px" height="105.845px" viewBox="111.549 86.8 105.805 105.845"
	 enable-background="new 111.549 86.8 105.805 105.845" xml:space="preserve">
<g>
	<path fill="#999999" d="M217.338,146.495l0.016-13.425l-11.597-0.014c-0.457-2.869-1.205-5.639-2.212-8.282l10.018-5.818
		l-6.744-11.608l-10.008,5.813c-1.762-2.151-3.732-4.124-5.885-5.887l5.779-10.013l-11.628-6.709l-5.763,9.984
		c-2.549-0.973-5.215-1.703-7.974-2.164l0.05-11.519L158.626,86.8l-0.049,11.396c-3.087,0.428-6.067,1.192-8.901,2.254l-5.708-9.958
		l-11.646,6.677l5.705,9.954c-2.28,1.848-4.362,3.93-6.211,6.21l-9.956-5.69l-6.662,11.655l9.943,5.684
		c-0.956,2.55-1.671,5.217-2.117,7.976l-11.46-0.015l-0.016,13.426l11.468,0.014c0.463,2.889,1.222,5.68,2.244,8.338l-9.92,5.762
		l6.743,11.609l9.943-5.775c1.773,2.154,3.762,4.127,5.927,5.89l-5.755,9.974l11.627,6.711l5.763-9.984
		c2.751,1.037,5.64,1.796,8.632,2.236l-0.05,11.448l12.767,0.054l0.049-11.568c2.836-0.449,5.576-1.184,8.191-2.172l5.76,10.045
		l11.646-6.678l-5.771-10.064c2.258-1.838,4.319-3.906,6.151-6.17l10.079,5.762l6.661-11.654l-10.073-5.759
		c0.946-2.526,1.655-5.17,2.102-7.901L217.338,146.495z M164.452,153.387c-7.548,0-13.666-6.117-13.666-13.666
		c0-7.547,6.118-13.666,13.666-13.666c7.547,0,13.665,6.118,13.665,13.666C178.117,147.27,171.999,153.387,164.452,153.387z"/>
	<path fill="#666666" d="M164.452,102.393c-20.616,0-37.329,16.712-37.329,37.328c0,20.616,16.713,37.328,37.329,37.328
		c20.614,0,37.327-16.712,37.327-37.328C201.779,119.105,185.066,102.393,164.452,102.393z M164.452,156.344
		c-9.183,0-16.624-7.441-16.624-16.623c0-9.181,7.441-16.623,16.624-16.623c9.181,0,16.623,7.442,16.623,16.623
		C181.075,148.902,173.633,156.344,164.452,156.344z"/>
	<path fill="#999999" d="M164.452,104.249c-19.593,0-35.474,15.881-35.474,35.472c0,19.592,15.881,35.473,35.474,35.473
		c19.59,0,35.472-15.881,35.472-35.473C199.924,120.13,184.042,104.249,164.452,104.249z M164.452,161.732
		c-12.158,0-22.013-9.854-22.013-22.012c0-12.158,9.854-22.013,22.013-22.013c12.157,0,22.012,9.854,22.012,22.013
		C186.464,151.877,176.609,161.732,164.452,161.732z"/>
</g>
</svg>
