<?xml version="1.0" encoding="utf-8"?>
<!-- Generator: Adobe Illustrator 15.0.2, SVG Export Plug-In . SVG Version: 6.00 Build 0)  -->
<!DOCTYPE svg PUBLIC "-//W3C//DTD SVG 1.1//EN" "http://www.w3.org/Graphics/SVG/1.1/DTD/svg11.dtd">
<svg version="1.1" id="Layer_1" xmlns="http://www.w3.org/2000/svg" xmlns:xlink="http://www.w3.org/1999/xlink" x="0px" y="0px"
	 width="70.227px" height="70.631px" viewBox="0 0 70.227 70.631" enable-background="new 0 0 70.227 70.631" xml:space="preserve">
<g>
	<path fill="#666666" d="M34.83,13.211c-12.208,0-22.104,9.896-22.104,22.104c0,12.208,9.896,22.104,22.104,22.104
		c12.208,0,22.104-9.896,22.104-22.104C56.934,23.107,47.038,13.211,34.83,13.211z M34.83,45.159c-5.436,0-9.844-4.407-9.844-9.844
		s4.408-9.844,9.844-9.844c5.437,0,9.844,4.407,9.844,9.844S40.267,45.159,34.83,45.159z"/>
	<path fill="#999999" d="M69.661,42.663l0.566-11.119L58.02,30.922c-0.493-2.562-1.386-4.981-2.613-7.189l8.93-8.33l-7.594-8.142
		l-8.82,8.227c-2.06-1.422-4.35-2.535-6.802-3.273l0.37-11.868L30.363,0l-0.36,11.532c-2.589,0.438-5.038,1.282-7.28,2.468
		l-7.656-8.29l-8.179,7.553l7.437,8.053c-1.56,2.162-2.774,4.588-3.561,7.201L0,27.968l-0.566,11.119l10.64,0.542
		c0.505,2.997,1.555,5.807,3.047,8.326l-7.797,7.273l7.595,8.142l7.912-7.381c2.318,1.508,4.909,2.63,7.683,3.281L28.17,70.284
		l11.128,0.347l0.354-11.355c2.53-0.59,4.912-1.568,7.07-2.878l7.872,8.524l8.18-7.554l-8.101-8.771
		c1.273-2.004,2.261-4.205,2.909-6.549L69.661,42.663z M34.823,48.859c-7.547,0-13.666-6.118-13.666-13.666
		s6.118-13.666,13.666-13.666s13.666,6.118,13.666,13.666S42.37,48.859,34.823,48.859z"/>
</g>
</svg>
