<?xml version="1.0" encoding="utf-8"?>
<!-- Generator: Adobe Illustrator 15.0.2, SVG Export Plug-In . SVG Version: 6.00 Build 0)  -->
<!DOCTYPE svg PUBLIC "-//W3C//DTD SVG 1.1//EN" "http://www.w3.org/Graphics/SVG/1.1/DTD/svg11.dtd">
<svg version="1.1" id="Layer_1" xmlns="http://www.w3.org/2000/svg" xmlns:xlink="http://www.w3.org/1999/xlink" x="0px" y="0px"
	 width="89.155px" height="89.583px" viewBox="31.562 116.189 89.155 89.583" enable-background="new 31.562 116.189 89.155 89.583"
	 xml:space="preserve">
<g>
	<path fill="#999999" d="M111.307,160.727c0-0.562-0.015-1.121-0.041-1.677l9.451-1.993l-2.299-10.896l-9.43,1.989
		c-1.333-3.479-3.202-6.69-5.507-9.535l6.431-7.174l-8.29-7.433l-6.423,7.165c-2.938-1.896-6.176-3.367-9.627-4.324l0.993-9.503
		l-11.073-1.157l-0.985,9.42c-3.901,0.18-7.636,0.994-11.104,2.344l-4.447-7.784l-9.667,5.522l4.51,7.896
		c-2.897,2.39-5.404,5.235-7.415,8.425l-8.458-3.796l-4.559,10.157l8.654,3.884c-0.671,2.712-1.029,5.548-1.029,8.468
		c0,0.592,0.015,1.181,0.044,1.765l-9.474,2l2.299,10.894l9.48-2.001c1.337,3.462,3.206,6.659,5.506,9.492l-6.48,7.229l8.29,7.431
		l6.483-7.231c3.083,1.985,6.495,3.502,10.138,4.448l-1.031,9.863l11.073,1.157l1.042-9.963c3.43-0.213,6.727-0.916,9.82-2.041
		l5.142,8.998l9.667-5.522l-5.085-8.901c2.79-2.201,5.237-4.814,7.251-7.751l9.197,4.128l4.559-10.158l-8.992-4.035
		C110.822,167.416,111.307,164.128,111.307,160.727z M76.065,170.646c-5.357,0-9.699-4.344-9.699-9.699
		c0-5.356,4.342-9.699,9.699-9.699s9.7,4.343,9.7,9.699C85.765,166.303,81.422,170.646,76.065,170.646z"/>
	<path fill="#666666" d="M76.141,130.352c-16.917,0-30.629,13.713-30.629,30.629s13.713,30.629,30.629,30.629
		s30.629-13.713,30.629-30.629S93.057,130.352,76.141,130.352z M76.141,174.621c-7.533,0-13.64-6.105-13.64-13.641
		c0-7.533,6.107-13.641,13.64-13.641c7.534,0,13.641,6.105,13.641,13.641C89.781,168.516,83.674,174.621,76.141,174.621z"/>
</g>
</svg>
