<!-- Generator: Adobe Illustrator 17.1.0, SVG Export Plug-In  --><svg version="1.1"	 xmlns="http://www.w3.org/2000/svg" xmlns:xlink="http://www.w3.org/1999/xlink" xmlns:a="http://ns.adobe.com/AdobeSVGViewerExtensions/3.0/"	 x="0px" y="0px" width="47.1px" height="92.3px" viewBox="0 0 47.1 92.3" enable-background="new 0 0 47.1 92.3"	 xml:space="preserve"><defs></defs><g>	<g>		<rect x="20" y="41.8" fill="#433A43" width="7.9" height="50.4"/>		<rect x="20" y="41.8" fill="#666666" width="7.9" height="10"/>	</g>	<path fill="#433A43" d="M23.6,0C10.5,0,0,10.5,0,23.6s10.5,23.6,23.6,23.6c13,0,23.6-10.5,23.6-23.6S36.6,0,23.6,0z M23.6,41.8		c-10.1,0-18.3-8.2-18.3-18.3c0-10.1,8.2-18.3,18.3-18.3c10.1,0,18.3,8.2,18.3,18.3C41.8,33.7,33.7,41.8,23.6,41.8z"/>	<g>		<circle opacity="0.15" fill="#FFFFFF" cx="23.6" cy="23.6" r="18.3"/>		<circle opacity="0.52" fill="#FFFFFF" cx="17.5" cy="17.7" r="4.7"/>	</g></g></svg>