<!-- Generator: Adobe Illustrator 17.1.0, SVG Export Plug-In  --><svg version="1.1"	 xmlns="http://www.w3.org/2000/svg" xmlns:xlink="http://www.w3.org/1999/xlink" xmlns:a="http://ns.adobe.com/AdobeSVGViewerExtensions/3.0/"	 x="0px" y="0px" width="58.6px" height="80.6px" viewBox="0 0 58.6 80.6" enable-background="new 0 0 58.6 80.6"	 xml:space="preserve"><defs></defs><g>	<g>		<path fill="#1F2B33" d="M56.5,80.6H2.1c-1.2,0-2.1-1-2.1-2.1V6.7c0-1.2,1-2.1,2.1-2.1h54.4c1.2,0,2.1,1,2.1,2.1v71.7			C58.6,79.6,57.7,80.6,56.5,80.6z"/>		<g>			<path fill="#CCCCCC" d="M53.4,77.3H5.2c-0.9,0-1.7-0.7-1.7-1.7V6.3c0-0.9,0.7-1.7,1.7-1.7h48.2c0.9,0,1.7,0.7,1.7,1.7v69.4				C55,76.6,54.3,77.3,53.4,77.3z"/>			<path fill="#FFFFFF" d="M53.4,75.9H5.2c-0.9,0-1.7-0.7-1.7-1.7v-68c0-0.9,0.7-1.7,1.7-1.7h48.2c0.9,0,1.7,0.7,1.7,1.7v68				C55,75.2,54.3,75.9,53.4,75.9z"/>		</g>		<g>			<rect x="9.8" y="14.2" fill="#CCCCCC" width="38.9" height="2.1"/>			<rect x="9.8" y="19.4" fill="#CCCCCC" width="38.9" height="2.1"/>			<rect x="9.8" y="24.6" fill="#CCCCCC" width="38.9" height="2.1"/>			<rect x="9.8" y="29.9" fill="#CCCCCC" width="38.9" height="2.1"/>			<rect x="9.8" y="35.1" fill="#CCCCCC" width="38.9" height="2.1"/>			<rect x="9.8" y="40.3" fill="#CCCCCC" width="38.9" height="2.1"/>			<rect x="9.8" y="45.6" fill="#CCCCCC" width="38.9" height="2.1"/>			<rect x="9.8" y="50.8" fill="#CCCCCC" width="38.9" height="2.1"/>			<rect x="9.8" y="56" fill="#CCCCCC" width="38.9" height="2.1"/>		</g>	</g>	<g>		<rect x="15.9" y="1.1" fill="#666666" width="26.8" height="7.8"/>		<rect x="15.9" y="1.1" fill="#808080" width="26.8" height="7.1"/>		<rect x="20.4" y="0.5" fill="#666666" width="17.7" height="5.2"/>		<rect x="20.4" y="0" fill="#999999" width="17.7" height="5.2"/>	</g></g></svg>