<!-- Generator: Adobe Illustrator 17.1.0, SVG Export Plug-In  --><svg version="1.1"	 xmlns="http://www.w3.org/2000/svg" xmlns:xlink="http://www.w3.org/1999/xlink" xmlns:a="http://ns.adobe.com/AdobeSVGViewerExtensions/3.0/"	 x="0px" y="0px" width="51.5px" height="71.3px" viewBox="0 0 51.5 71.3" enable-background="new 0 0 51.5 71.3"	 xml:space="preserve"><defs></defs><g>	<g>		<g>			<path fill="#FFFFFF" d="M49.8,71.3H1.7c-0.9,0-1.7-0.7-1.7-1.7v-68C0,0.7,0.7,0,1.7,0h48.2c0.9,0,1.7,0.7,1.7,1.7v68				C51.5,70.6,50.7,71.3,49.8,71.3z"/>		</g>		<g>			<rect x="6.3" y="9.6" fill="#CCCCCC" width="38.9" height="2.1"/>			<rect x="6.3" y="14.8" fill="#CCCCCC" width="38.9" height="2.1"/>			<rect x="6.3" y="20" fill="#CCCCCC" width="38.9" height="2.1"/>			<rect x="6.3" y="25.3" fill="#CCCCCC" width="38.9" height="2.1"/>			<rect x="6.3" y="30.5" fill="#CCCCCC" width="38.9" height="2.1"/>			<rect x="6.3" y="35.7" fill="#CCCCCC" width="38.9" height="2.1"/>			<rect x="6.3" y="41" fill="#CCCCCC" width="38.9" height="2.1"/>			<rect x="6.3" y="46.2" fill="#CCCCCC" width="38.9" height="2.1"/>			<rect x="6.3" y="51.4" fill="#CCCCCC" width="38.9" height="2.1"/>		</g>	</g></g></svg>