<!-- Generator: Adobe Illustrator 17.1.0, SVG Export Plug-In  --><svg version="1.1"	 xmlns="http://www.w3.org/2000/svg" xmlns:xlink="http://www.w3.org/1999/xlink" xmlns:a="http://ns.adobe.com/AdobeSVGViewerExtensions/3.0/"	 x="0px" y="0px" width="56px" height="115.7px" viewBox="0 0 56 115.7" enable-background="new 0 0 56 115.7" xml:space="preserve"	><defs></defs><g>			<rect x="16.1" y="1.9" transform="matrix(-0.96 -0.2801 0.2801 -0.96 39.3631 122.0837)" fill="#BFBFBF" width="24.7" height="112.6"/>	<rect x="15.3" y="1.2" transform="matrix(-0.96 -0.2801 0.2801 -0.96 38 120.4026)" fill="#FFFFFF" width="24.7" height="112.6"/>	<g>					<rect x="31" y="6.1" transform="matrix(-0.96 -0.2801 0.2801 -0.96 76.4876 36.7294)" fill="#CEB9D7" width="19.8" height="13.7"/>					<rect x="26.3" y="22" transform="matrix(-0.96 -0.2801 0.2801 -0.96 62.9066 66.6679)" fill="#B696C4" width="19.8" height="13.7"/>					<rect x="21.7" y="37.9" transform="matrix(-0.96 -0.2801 0.2801 -0.96 49.3255 96.6068)" fill="#9D73B0" width="19.8" height="13.7"/>					<rect x="17" y="53.9" transform="matrix(-0.96 -0.2801 0.2801 -0.96 35.7442 126.5456)" fill="#85509C" width="19.8" height="13.7"/>					<rect x="12.4" y="69.8" transform="matrix(-0.96 -0.2801 0.2801 -0.96 22.1628 156.4849)" fill="#643C75" width="19.8" height="13.7"/>					<rect x="7.7" y="85.8" transform="matrix(-0.96 -0.2801 0.2801 -0.96 8.5815 186.424)" fill="#43284E" width="19.8" height="13.7"/>	</g></g></svg>