<!-- Generator: Adobe Illustrator 17.1.0, SVG Export Plug-In  --><svg version="1.1"	 xmlns="http://www.w3.org/2000/svg" xmlns:xlink="http://www.w3.org/1999/xlink" xmlns:a="http://ns.adobe.com/AdobeSVGViewerExtensions/3.0/"	 x="0px" y="0px" width="26.9px" height="113.3px" viewBox="0 0 26.9 113.3" enable-background="new 0 0 26.9 113.3"	 xml:space="preserve"><defs></defs><g>			<rect x="0.6" y="0.6" transform="matrix(-0.9999 -1.093953e-02 1.093953e-02 -0.9999 25.2694 113.9275)" fill="#BFBFBF" width="24.7" height="112.6"/>			<rect x="1.6" y="0.1" transform="matrix(-0.9999 -1.093953e-02 1.093953e-02 -0.9999 27.2404 112.982)" fill="#FFFFFF" width="24.7" height="112.6"/>	<g>					<rect x="4.8" y="3.1" transform="matrix(-0.9999 -1.093953e-02 1.093953e-02 -0.9999 29.2552 19.9689)" fill="#FFF7D6" width="19.8" height="13.7"/>					<rect x="4.6" y="19.7" transform="matrix(-0.9999 -1.093953e-02 1.093953e-02 -0.9999 28.7103 53.1728)" fill="#FFEFAD" width="19.8" height="13.7"/>					<rect x="4.4" y="36.3" transform="matrix(-0.9999 -1.093953e-02 1.093953e-02 -0.9999 28.1654 86.3772)" fill="#FFDE5C" width="19.8" height="13.7"/>					<rect x="4.2" y="52.9" transform="matrix(-0.9999 -1.093953e-02 1.093953e-02 -0.9999 27.6205 119.5816)" fill="#FFD633" width="19.8" height="13.7"/>					<rect x="4.1" y="69.5" transform="matrix(-0.9999 -1.093953e-02 1.093953e-02 -0.9999 27.0755 152.7864)" fill="#BFA126" width="19.8" height="13.7"/>					<rect x="3.9" y="86.1" transform="matrix(-0.9999 -1.093953e-02 1.093953e-02 -0.9999 26.5306 185.9911)" fill="#806B1A" width="19.8" height="13.7"/>	</g></g></svg>