<!-- Generator: Adobe Illustrator 17.1.0, SVG Export Plug-In  --><svg version="1.1"	 xmlns="http://www.w3.org/2000/svg" xmlns:xlink="http://www.w3.org/1999/xlink" xmlns:a="http://ns.adobe.com/AdobeSVGViewerExtensions/3.0/"	 x="0px" y="0px" width="41.4px" height="115.3px" viewBox="0 0 41.4 115.3" enable-background="new 0 0 41.4 115.3"	 xml:space="preserve"><defs></defs><g>			<rect x="7.9" y="1.5" transform="matrix(-0.9899 -0.1418 0.1418 -0.9899 31.9765 117.8998)" fill="#BFBFBF" width="24.7" height="112.6"/>			<rect x="8.9" y="1.2" transform="matrix(-0.9899 -0.1418 0.1418 -0.9899 34.0891 117.3599)" fill="#FFFFFF" width="24.7" height="112.6"/>	<g>					<rect x="18.2" y="4.6" transform="matrix(-0.9899 -0.1418 0.1418 -0.9899 54.2265 26.7703)" fill="#F4D4CC" width="19.8" height="13.7"/>					<rect x="15.8" y="21.1" transform="matrix(-0.9899 -0.1418 0.1418 -0.9899 47.2084 59.1431)" fill="#E9A899" width="19.8" height="13.7"/>					<rect x="13.5" y="37.5" transform="matrix(-0.9899 -0.1418 0.1418 -0.9899 40.1902 91.5164)" fill="#D45133" width="19.8" height="13.7"/>					<rect x="11.1" y="53.9" transform="matrix(-0.9899 -0.1418 0.1418 -0.9899 33.172 123.8897)" fill="#C92600" width="19.8" height="13.7"/>					<rect x="8.8" y="70.4" transform="matrix(-0.9899 -0.1418 0.1418 -0.9899 26.1536 156.2634)" fill="#971D00" width="19.8" height="13.7"/>					<rect x="6.4" y="86.8" transform="matrix(-0.9899 -0.1418 0.1418 -0.9899 19.1353 188.637)" fill="#651300" width="19.8" height="13.7"/>	</g></g></svg>