<!-- Generator: Adobe Illustrator 17.1.0, SVG Export Plug-In  --><svg version="1.1"	 xmlns="http://www.w3.org/2000/svg" xmlns:xlink="http://www.w3.org/1999/xlink" xmlns:a="http://ns.adobe.com/AdobeSVGViewerExtensions/3.0/"	 x="0px" y="0px" width="84.3px" height="107.9px" viewBox="0 0 84.3 107.9" enable-background="new 0 0 84.3 107.9"	 xml:space="preserve"><defs></defs><g>			<rect x="30.1" y="-1.9" transform="matrix(-0.8266 -0.5628 0.5628 -0.8266 46.8262 123.2661)" fill="#BFBFBF" width="24.7" height="112.6"/>			<rect x="29.5" y="-2.8" transform="matrix(-0.8266 -0.5628 0.5628 -0.8266 46.3895 121.2228)" fill="#FFFFFF" width="24.7" height="112.6"/>	<g>					<rect x="58.4" y="8.3" transform="matrix(-0.8266 -0.5628 0.5628 -0.8266 116.1416 66.0872)" fill="#CCFFEB" width="19.8" height="13.7"/>					<rect x="49" y="22" transform="matrix(-0.8266 -0.5628 0.5628 -0.8266 91.3476 85.898)" fill="#99FFD6" width="19.8" height="13.7"/>					<rect x="39.7" y="35.8" transform="matrix(-0.8266 -0.5628 0.5628 -0.8266 66.5532 105.7091)" fill="#66FFC2" width="19.8" height="13.7"/>					<rect x="30.3" y="49.5" transform="matrix(-0.8266 -0.5628 0.5628 -0.8266 41.7589 125.5202)" fill="#33FFAD" width="19.8" height="13.7"/>					<rect x="21" y="63.2" transform="matrix(-0.8266 -0.5628 0.5628 -0.8266 16.9642 145.3315)" fill="#00BF73" width="19.8" height="13.7"/>					<rect x="11.6" y="76.9" transform="matrix(-0.8266 -0.5628 0.5628 -0.8266 -7.8304 165.1428)" fill="#00804D" width="19.8" height="13.7"/>	</g></g></svg>