<!-- Generator: Adobe Illustrator 17.1.0, SVG Export Plug-In  --><svg version="1.1"	 xmlns="http://www.w3.org/2000/svg" xmlns:xlink="http://www.w3.org/1999/xlink" xmlns:a="http://ns.adobe.com/AdobeSVGViewerExtensions/3.0/"	 x="0px" y="0px" width="66.9px" height="114.2px" viewBox="0 0 66.9 114.2" enable-background="new 0 0 66.9 114.2"	 xml:space="preserve"><defs></defs><g>			<rect x="21.5" y="1.2" transform="matrix(-0.9225 -0.3859 0.3859 -0.9225 42.8077 123.6169)" fill="#BFBFBF" width="24.7" height="112.6"/>			<rect x="20.8" y="0.4" transform="matrix(-0.9225 -0.3859 0.3859 -0.9225 41.7558 121.749)" fill="#FFFFFF" width="24.7" height="112.6"/>	<g>					<rect x="41.4" y="7" transform="matrix(-0.9225 -0.3859 0.3859 -0.9225 93.2285 46.4427)" fill="#DDF4FF" width="19.8" height="13.7"/>					<rect x="35" y="22.3" transform="matrix(-0.9225 -0.3859 0.3859 -0.9225 74.9969 73.419)" fill="#BBE9FF" width="19.8" height="13.7"/>					<rect x="28.6" y="37.7" transform="matrix(-0.9225 -0.3859 0.3859 -0.9225 56.7651 100.3957)" fill="#77D4FF" width="19.8" height="13.7"/>					<rect x="22.2" y="53" transform="matrix(-0.9225 -0.3859 0.3859 -0.9225 38.5332 127.3723)" fill="#55C9FF" width="19.8" height="13.7"/>					<rect x="15.8" y="68.3" transform="matrix(-0.9225 -0.3859 0.3859 -0.9225 20.3012 154.3494)" fill="#4097BF" width="19.8" height="13.7"/>					<rect x="9.3" y="83.6" transform="matrix(-0.9225 -0.3859 0.3859 -0.9225 2.0693 181.3263)" fill="#2B6580" width="19.8" height="13.7"/>	</g></g></svg>