<!-- Generator: Adobe Illustrator 17.1.0, SVG Export Plug-In  --><svg version="1.1"	 xmlns="http://www.w3.org/2000/svg" xmlns:xlink="http://www.w3.org/1999/xlink" xmlns:a="http://ns.adobe.com/AdobeSVGViewerExtensions/3.0/"	 x="0px" y="0px" width="42.4px" height="86.5px" viewBox="0 0 42.4 86.5" enable-background="new 0 0 42.4 86.5"	 xml:space="preserve"><defs></defs><g>	<path fill="#404041" d="M0,81.3c0,2.9,2.4,5.2,5.4,5.2h31.5c3,0,5.4-2.3,5.4-5.2V5.2C42.4,2.3,40,0,36.9,0L5.4,0C2.4,0,0,2.3,0,5.2		L0,81.3z"/>	<path fill="#58595B" d="M0.4,80.2c0,2.8,2.4,5.1,5.3,5.1h30.9c2.9,0,5.3-2.3,5.3-5.1V5.1C42,2.3,39.6,0,36.6,0L5.8,0		C2.8,0,0.4,2.3,0.4,5.1V80.2z"/>	<path fill="#404041" d="M27.7,79.2c0-0.9-0.8-1.7-1.8-1.7h-9.5c-1,0-1.8,0.8-1.8,1.7v2.7c0,0.9,0.8,1.7,1.8,1.7h9.5		c1,0,1.8-0.8,1.8-1.7V79.2z"/>	<path fill="#231F20" d="M16.4,77.5h9.5c1,0,1.8,0.5,1.8,1.1v0.7c0-0.6-0.8-1.1-1.8-1.1h-9.5c-1,0-1.8,0.5-1.8,1.1v-0.7		C14.7,78,15.5,77.5,16.4,77.5z"/>	<path fill="#404041" d="M15.4,8.1c0,0.4,0.3,0.7,0.7,0.7h10.3c0.4,0,0.7-0.3,0.7-0.7l0,0c0-0.4-0.3-0.7-0.7-0.7H16.2		C15.8,7.4,15.4,7.7,15.4,8.1L15.4,8.1z"/>	<ellipse fill="#404041" cx="21.3" cy="4.9" rx="1.1" ry="1.1"/>	<path fill="#929497" d="M15.3,8.2c0,0.4,0.3,0.7,0.7,0.7h10.3c0.4,0,0.7-0.3,0.7-0.7l0,0c0-0.4-0.3-0.7-0.7-0.7H16		C15.6,7.5,15.3,7.8,15.3,8.2L15.3,8.2z"/>	<ellipse fill="#929497" cx="21.2" cy="5.1" rx="1.1" ry="1.1"/>	<ellipse fill="#A6A8AB" cx="21.2" cy="80.6" rx="1.1" ry="1.1"/>	<rect x="3.5" y="12.1" fill="#1C3641" width="35.4" height="60.5"/></g></svg>