<!-- Generator: Adobe Illustrator 17.1.0, SVG Export Plug-In  --><svg version="1.1"	 xmlns="http://www.w3.org/2000/svg" xmlns:xlink="http://www.w3.org/1999/xlink" xmlns:a="http://ns.adobe.com/AdobeSVGViewerExtensions/3.0/"	 x="0px" y="0px" width="39.9px" height="235.3px" viewBox="0 0 39.9 235.3" enable-background="new 0 0 39.9 235.3"	 xml:space="preserve"><defs></defs><g>	<path fill="#EDC402" d="M0,0v235.3h39.9V0H0z M19.9,29.6c-4.1,0-7.4-3.3-7.4-7.4c0-4.1,3.3-7.4,7.4-7.4s7.4,3.3,7.4,7.4		C27.3,26.3,24,29.6,19.9,29.6z"/>	<g>		<rect x="0" y="39.6" fill="#FFFFFF" width="16.4" height="2.5"/>		<rect x="0" y="51.4" fill="#FFFFFF" width="11.6" height="2.5"/>		<rect x="0" y="63.2" fill="#FFFFFF" width="16.4" height="2.5"/>		<rect x="0" y="75" fill="#FFFFFF" width="11.6" height="2.5"/>		<rect x="0" y="86.8" fill="#FFFFFF" width="16.4" height="2.5"/>		<rect x="0" y="98.6" fill="#FFFFFF" width="11.6" height="2.5"/>		<rect x="0" y="110.4" fill="#FFFFFF" width="16.4" height="2.5"/>		<rect x="0" y="122.2" fill="#FFFFFF" width="11.6" height="2.5"/>		<rect x="0" y="134" fill="#FFFFFF" width="16.4" height="2.5"/>		<rect x="0" y="145.8" fill="#FFFFFF" width="11.6" height="2.5"/>		<rect x="0" y="157.6" fill="#FFFFFF" width="16.4" height="2.5"/>		<rect x="0" y="169.4" fill="#FFFFFF" width="11.6" height="2.5"/>		<rect x="0" y="181.2" fill="#FFFFFF" width="16.4" height="2.5"/>		<rect x="0" y="193" fill="#FFFFFF" width="11.6" height="2.5"/>		<rect x="0" y="204.8" fill="#FFFFFF" width="16.4" height="2.5"/>		<rect x="0" y="216.6" fill="#FFFFFF" width="11.6" height="2.5"/>		<rect x="0" y="228.5" fill="#FFFFFF" width="16.4" height="2.5"/>	</g></g></svg>