<!-- Generator: Adobe Illustrator 17.1.0, SVG Export Plug-In  --><svg version="1.1"	 xmlns="http://www.w3.org/2000/svg" xmlns:xlink="http://www.w3.org/1999/xlink" xmlns:a="http://ns.adobe.com/AdobeSVGViewerExtensions/3.0/"	 x="0px" y="0px" width="124.4px" height="164.6px" viewBox="0 0 124.4 164.6" enable-background="new 0 0 124.4 164.6"	 xml:space="preserve"><defs></defs><g>	<g>		<rect x="0" y="0.6" width="124.4" height="164.1"/>		<rect x="0" y="0" fill="#1D1D1B" width="124.4" height="163.6"/>	</g>	<g>		<rect x="18.5" y="34.5" fill="#ECECEC" width="49.5" height="6.3"/>		<g>			<g>				<rect x="6.2" y="42.5" fill="#FF0075" width="18.6" height="5"/>				<rect x="6.2" y="27.5" fill="#FF0075" width="18.6" height="5"/>				<rect x="6.2" y="91" fill="#FF0075" width="18.6" height="5"/>				<rect x="6.2" y="133.8" fill="#FF0075" width="18.6" height="5"/>			</g>			<g>				<rect x="6.2" y="52.7" fill="#FF0075" width="18.6" height="4.8"/>				<rect x="28.4" y="52.7" fill="#8CE83F" width="18.6" height="4.8"/>				<rect x="50.5" y="52.7" fill="#FFFE7D" width="18.6" height="4.8"/>			</g>		</g>		<g>			<rect x="18.5" y="61.4" fill="#ECECEC" width="99.1" height="4.8"/>			<rect x="18.5" y="68.9" fill="#ECECEC" width="99.1" height="4.8"/>			<rect x="18.5" y="76.4" fill="#ECECEC" width="99.1" height="4.8"/>			<rect x="18.5" y="97.6" fill="#ECECEC" width="99.1" height="4.8"/>			<rect x="30.7" y="111.4" fill="#ECECEC" width="86.9" height="4.8"/>			<rect x="30.7" y="118.7" fill="#ECECEC" width="86.9" height="4.8"/>			<rect x="30.7" y="125.9" fill="#ECECEC" width="86.9" height="4.8"/>			<rect x="22.3" y="83.9" fill="#29ABE2" width="16.9" height="4.8"/>			<rect x="22.3" y="104.3" fill="#29ABE2" width="16.9" height="4.8"/>			<rect x="18.5" y="142.3" fill="#ECECEC" width="99.1" height="4.8"/>			<rect x="22.3" y="149" fill="#29ABE2" width="16.9" height="4.8"/>		</g>	</g>	<g>		<rect x="0" y="0" fill="#DADADA" width="124.4" height="8.6"/>		<g>			<circle fill="#6F6E6E" cx="6.6" cy="4.3" r="2.4"/>			<circle fill="#6F6E6E" cx="13.8" cy="4.3" r="2.4"/>			<circle fill="#6F6E6E" cx="21.1" cy="4.3" r="2.4"/>		</g>	</g></g></svg>